<?xml version="1.0" encoding="UTF-8"?>
<svg id="_レイヤー_2" data-name="レイヤー 2" xmlns="http://www.w3.org/2000/svg" viewBox="0 0 34.409 34.409">
  <defs>
    <style>
      .cls-1 {
        fill: #222;
      }
    </style>
  </defs>
  <g id="_レイヤー_1-2" data-name="レイヤー 1">
    <path class="cls-1" d="M10.817,33.183c-.215-1.957-.065-3.828.366-5.634l1.72-7.419c-.28-.903-.495-1.935-.495-2.968,0-2.409,1.161-4.129,2.989-4.129,1.269,0,2.194.882,2.194,2.581,0,.538-.108,1.14-.323,1.828l-.753,2.473c-.151.473-.215.925-.215,1.312,0,1.72,1.312,2.688,2.989,2.688,2.989,0,5.118-3.097,5.118-7.118,0-4.473-2.925-7.333-7.247-7.333-4.817,0-7.871,3.14-7.871,7.505,0,1.763.538,3.398,1.591,4.516-.344.581-.71.688-1.269.688-1.72,0-3.355-2.43-3.355-5.742,0-5.721,4.581-10.28,11.011-10.28,6.753,0,10.989,4.71,10.989,10.516,0,5.849-4.129,10.237-8.581,10.237-1.763,0-3.312-.753-4.387-2.108l-.882,3.57c-.473,1.849-1.183,3.591-2.323,5.269,1.613.495,3.204.774,5.118.774,9.505,0,17.204-7.699,17.204-17.204S26.71,0,17.204,0,0,7.699,0,17.204c0,7.204,4.43,13.419,10.817,15.979"/>
  </g>
</svg>