<?xml version="1.0" encoding="UTF-8"?>
<svg id="_レイヤー_2" data-name="レイヤー 2" xmlns="http://www.w3.org/2000/svg" viewBox="0 0 34.409 34.283">
  <defs>
    <style>
      .cls-1 {
        fill: #222;
      }
    </style>
  </defs>
  <g id="_レイヤー_1-2" data-name="レイヤー 1">
    <path id="Initiator" class="cls-1" d="M34.409,17.204C34.409,7.703,26.706,0,17.204,0S0,7.703,0,17.204c0,8.068,5.555,14.839,13.048,16.698v-11.44h-3.548v-5.257h3.548v-2.265c0-5.856,2.65-8.57,8.399-8.57,1.09,0,2.971.214,3.74.427v4.766c-.406-.043-1.111-.064-1.988-.064-2.821,0-3.911,1.069-3.911,3.847v1.859h5.62l-.965,5.257h-4.654v11.821c8.519-1.029,15.12-8.282,15.12-17.078Z"/>
  </g>
</svg>