<?xml version="1.0" encoding="UTF-8"?>
<svg id="_レイヤー_2" data-name="レイヤー 2" xmlns="http://www.w3.org/2000/svg" viewBox="0 0 34.409 34.409">
  <defs>
    <style>
      .cls-1 {
        fill: #222;
      }
    </style>
  </defs>
  <g id="_レイヤー_1-2" data-name="レイヤー 1">
    <path class="cls-1" d="M10.079.12c-1.831.086-3.081.378-4.173.808-1.131.441-2.09,1.032-3.043,1.99-.954.957-1.541,1.917-1.979,3.049-.424,1.095-.711,2.346-.791,4.178C.011,11.977-.007,12.565.002,17.237c.009,4.672.03,5.258.118,7.093.087,1.83.378,3.08.808,4.173.441,1.131,1.032,2.089,1.99,3.043.958.954,1.916,1.54,3.052,1.979,1.094.423,2.346.711,4.177.791,1.831.08,2.421.099,7.091.09,4.671-.009,5.259-.03,7.094-.117,1.835-.087,3.078-.38,4.172-.808,1.131-.443,2.09-1.032,3.043-1.99.953-.958,1.54-1.918,1.978-3.051.424-1.094.712-2.346.791-4.176.08-1.836.099-2.423.09-7.094-.009-4.671-.03-5.257-.117-7.092-.087-1.835-.378-3.081-.808-4.175-.442-1.131-1.032-2.089-1.99-3.043s-1.918-1.542-3.051-1.978c-1.095-.424-2.346-.712-4.177-.791C22.433.013,21.844-.007,17.172.002c-4.672.009-5.257.029-7.092.118M10.28,31.222c-1.677-.073-2.588-.352-3.195-.585-.804-.31-1.376-.684-1.981-1.283s-.977-1.174-1.29-1.976c-.236-.607-.52-1.517-.598-3.194-.085-1.813-.103-2.357-.113-6.951-.01-4.593.008-5.137.087-6.951.072-1.676.352-2.588.585-3.195.31-.805.683-1.376,1.283-1.981.6-.605,1.173-.977,1.976-1.291.606-.237,1.516-.518,3.193-.598,1.814-.086,2.358-.103,6.951-.113,4.593-.01,5.138.007,6.953.087,1.676.073,2.588.351,3.194.585.804.31,1.376.682,1.981,1.283.605.601.977,1.172,1.291,1.977.237.605.519,1.514.598,3.192.086,1.814.106,2.358.114,6.951.008,4.592-.008,5.138-.087,6.951-.073,1.677-.351,2.589-.585,3.196-.31.803-.683,1.376-1.284,1.981s-1.173.977-1.976,1.29c-.606.236-1.516.519-3.192.598-1.814.085-2.358.103-6.952.113-4.594.01-5.136-.009-6.951-.087M24.306,8.009c.002,1.14.928,2.063,2.068,2.061,1.14-.002,2.063-.928,2.061-2.068-.002-1.14-.928-2.063-2.068-2.061,0,0,0,0,0,0-1.14.002-2.062.928-2.06,2.068M8.371,17.222c.01,4.879,3.972,8.826,8.85,8.816,4.878-.009,8.827-3.971,8.818-8.851-.009-4.879-3.973-8.827-8.852-8.817-4.879.01-8.826,3.973-8.817,8.851M11.47,17.215c-.006-3.167,2.556-5.74,5.724-5.746,3.167-.006,5.74,2.556,5.746,5.724.006,3.167-2.556,5.74-5.724,5.746-3.167.007-5.74-2.555-5.746-5.722h0"/>
  </g>
</svg>