<?xml version="1.0" encoding="UTF-8"?>
<svg id="_レイヤー_2" data-name="レイヤー 2" xmlns="http://www.w3.org/2000/svg" viewBox="0 0 272 54.905">
  <defs>
    <style>
      .cls-1 {
        fill: #fff;
      }
    </style>
  </defs>
  <g id="_レイヤー_1-2" data-name="レイヤー 1">
    <g>
      <path class="cls-1" d="M3.21,40.273H.06c.086.63.115,1.046.115,2.119v7.674c0,.96-.029,1.562-.115,2.119h3.15c-.086-.601-.115-1.13-.115-2.119v-7.674c0-1.044.029-1.531.115-2.119Z"/>
      <path class="cls-1" d="M18.529,46.445c0-1.132-.244-1.833-.817-2.405-.529-.531-1.302-.802-2.276-.802-1.217,0-2.119.357-2.978,1.187,0-.128.014-.357.014-.472v-1.518c0-1.018.029-1.533.115-2.163h-2.964c.086.559.115,1.174.115,2.163v7.588c0,.888-.029,1.489-.115,2.161h2.964c-.086-.745-.115-1.346-.115-2.161v-2.907c.573-.945,1.346-1.489,2.162-1.489.401,0,.716.13.916.388.172.242.229.5.229,1.073v2.936c0,.872-.029,1.474-.115,2.161h2.978c-.073-.601-.115-1.317-.115-2.148v-3.593Z"/>
      <path class="cls-1" d="M28.822,48.335c-.042-.817-.099-1.418-.214-1.876-.502-2.132-2.062-3.35-4.295-3.35-2.735,0-4.553,1.876-4.553,4.711,0,1.416.458,2.634,1.302,3.493.817.815,1.919,1.216,3.322,1.216,1.418,0,2.564-.414,3.379-1.216.401-.401.617-.731.945-1.476l-2.491-.701c-.115.372-.214.529-.429.729-.372.344-.872.531-1.445.531-1.132,0-1.804-.617-1.947-1.775h6.443c-.015-.143-.015-.229-.015-.286ZM22.437,46.645c.244-.945.859-1.403,1.876-1.403.987,0,1.604.487,1.804,1.403h-3.68Z"/>
      <path class="cls-1" d="M32.974,40.273h-2.991c.086.544.115,1.145.115,2.163v7.588c0,1.031-.029,1.518-.115,2.161h2.991c-.086-.758-.115-1.302-.115-2.161v-7.588c0-.974.029-1.562.115-2.163Z"/>
      <path class="cls-1" d="M40.219,43.194c-1.187,0-2.075.302-2.934,1.018,0-.073.013-.187.013-.273v-.487h-2.82c.086.731.115,1.317.115,2.249v6.987c0,.758-.044,1.474-.115,2.09h2.934c-.086-.617-.115-1.275-.115-2.077v-.987c-.013-.2-.013-.388-.013-.515.401.344.615.5.987.659.531.229,1.26.372,1.934.372,1.174,0,2.218-.401,2.949-1.132.815-.815,1.245-2.004,1.245-3.465,0-1.445-.386-2.577-1.145-3.335-.744-.731-1.775-1.103-3.035-1.103ZM40.979,49.522c-.372.359-.859.544-1.403.544-1.289,0-2.249-1.016-2.249-2.361,0-1.304.974-2.348,2.163-2.348,1.346,0,2.119.844,2.119,2.304,0,.817-.229,1.476-.63,1.861Z"/>
      <path class="cls-1" d="M56.613,44.068c-.773-.588-1.546-.83-2.606-.83-2.449,0-4.066,1.674-4.066,4.223,0,2.606,1.575,4.238,4.066,4.238,1.102,0,1.875-.286,2.606-.945-.029.76-.158,1.189-.458,1.533-.344.414-.96.63-1.747.63-.945,0-1.676-.33-2.176-.974l-2.062,1.359c1.002,1.103,2.291,1.59,4.238,1.59,1.432,0,2.634-.302,3.408-.846,1.002-.701,1.489-1.861,1.489-3.579v-5.024c0-.846.029-1.346.115-1.991h-2.806v.617ZM54.536,49.637c-1.13,0-1.875-.844-1.875-2.161,0-1.332.744-2.205,1.89-2.205,1.159,0,2.004.916,2.004,2.19s-.846,2.176-2.02,2.176Z"/>
      <path class="cls-1" d="M63.928,43.452h-2.991c.086.645.115,1.231.115,2.163v4.41c0,.916-.029,1.46-.115,2.161h2.991c-.071-.615-.115-1.388-.115-2.161v-4.41c0-1.002.029-1.575.115-2.163Z"/>
      <rect class="cls-1" x="60.979" y="40.273" width="2.906" height="2.148"/>
      <path class="cls-1" d="M71.245,44.683l-1.332,4.438c-.013.044-.029.101-.057.172-.013.073-.029.115-.042.143-.015.057-.029.13-.073.258-.071-.242-.071-.258-.115-.401-.029-.071-.042-.128-.057-.156l-1.331-4.454c-.172-.586-.244-.888-.273-1.231h-3.178c.315.731.515,1.189.601,1.39l2.405,6.141c.244.617.315.846.388,1.203h3.134c.073-.357.143-.586.388-1.203l2.405-6.141c.185-.474.3-.745.586-1.39h-3.178c-.029.315-.115.702-.271,1.231Z"/>
      <path class="cls-1" d="M84.23,48.335c-.042-.817-.099-1.418-.214-1.876-.502-2.132-2.062-3.35-4.295-3.35-2.735,0-4.553,1.876-4.553,4.711,0,1.416.458,2.634,1.302,3.493.817.815,1.919,1.216,3.322,1.216,1.418,0,2.564-.414,3.379-1.216.401-.401.617-.731.945-1.476l-2.491-.701c-.115.372-.214.529-.43.729-.372.344-.872.531-1.445.531-1.132,0-1.804-.617-1.947-1.775h6.443c-.015-.143-.015-.229-.015-.286ZM77.844,46.645c.244-.945.859-1.403,1.877-1.403.987,0,1.603.487,1.804,1.403h-3.681Z"/>
      <path class="cls-1" d="M91.503,42.78v.672h-.386c-.544,0-1.203-.042-1.603-.099v2.405c.487-.073.93-.101,1.603-.101h.386v4.368c0,.93-.029,1.46-.115,2.161h2.978c-.086-.701-.115-1.174-.115-2.161v-4.368h.445c.802,0,1.273.029,1.875.101v-2.405c-.529.057-1.302.099-1.903.099h-.416v-.357c0-.744.273-1.031.974-1.031.544,0,.974.115,1.418.357l.443-2.104c-.786-.216-1.374-.302-2.176-.302-2.333,0-3.407.874-3.407,2.764Z"/>
      <path class="cls-1" d="M102.298,43.123c-2.892,0-4.725,1.817-4.725,4.681,0,2.879,1.833,4.711,4.711,4.711,2.848,0,4.738-1.89,4.738-4.74,0-2.835-1.833-4.652-4.725-4.652ZM102.298,50.339c-1.245,0-1.989-.96-1.989-2.548,0-1.575.745-2.52,2.004-2.52,1.216,0,1.947.945,1.947,2.548,0,1.588-.716,2.52-1.962,2.52Z"/>
      <path class="cls-1" d="M111.031,44.584v-1.132h-2.848c.086.617.115,1.117.115,2.163v4.41c0,.93-.029,1.445-.115,2.161h2.963c-.086-.687-.115-1.231-.115-2.148v-2.233c.057-.63.158-.93.43-1.273.416-.515.973-.773,1.705-.773.443,0,.802.071,1.46.271l.687-2.577c-.674-.143-.96-.172-1.418-.172-1.302,0-2.161.387-2.863,1.304Z"/>
      <path class="cls-1" d="M130.245,46.487c0-2.161-1.044-3.278-3.092-3.278-1.245,0-2.119.372-3.007,1.245-.185-.357-.328-.529-.586-.716-.473-.344-1.088-.515-1.833-.515-1.132,0-2.004.372-2.735,1.174v-.143q.015-.143.015-.2v-.601h-2.835c.086.559.115,1.075.115,2.163v4.41c0,.901-.029,1.502-.115,2.161h2.949c-.086-.701-.115-1.26-.115-2.161v-2.892c.401-.973,1.059-1.533,1.833-1.533.344,0,.63.13.786.359.187.242.244.515.244,1.117v2.949c0,.916-.029,1.518-.115,2.161h2.978c-.086-.687-.115-1.289-.115-2.148v-2.921c.357-.958,1.016-1.531,1.747-1.531.815,0,1.13.414,1.13,1.489v2.949c0,.974-.029,1.489-.115,2.161h2.978c-.086-.672-.115-1.26-.115-2.148v-3.551Z"/>
      <path class="cls-1" d="M141.355,50.225c-.271,0-.5-.057-.659-.158-.185-.128-.258-.328-.258-.729v-3.665h.601c.515,0,.888.029,1.317.086v-2.377c-.443.057-.773.071-1.403.071h-.515v-.3c0-.687.044-1.375.115-1.962h-2.921c.086.674.115,1.247.115,1.962v.3h-.515c-.5,0-.859-.029-1.273-.086v2.392c.414-.057.786-.086,1.245-.086h.544v4.381c0,.974.201,1.46.745,1.875.458.344,1.132.502,2.106.502.773,0,1.33-.086,1.976-.286l-.216-2.176c-.357.185-.63.258-1.002.258Z"/>
      <path class="cls-1" d="M147.826,43.123c-2.892,0-4.725,1.817-4.725,4.681,0,2.879,1.833,4.711,4.711,4.711,2.848,0,4.738-1.89,4.738-4.74,0-2.835-1.833-4.652-4.725-4.652ZM147.826,50.339c-1.245,0-1.989-.96-1.989-2.548,0-1.575.744-2.52,2.004-2.52,1.216,0,1.947.945,1.947,2.548,0,1.588-.716,2.52-1.962,2.52Z"/>
      <path class="cls-1" d="M164.077,45.357l-1.275,3.249-1.317-3.306c-.3-.773-.487-1.39-.557-1.848h-3.108c.187.359.244.487.859,1.919l2.678,6.042-.302.617c-.214.43-.615.672-1.159.672-.372,0-.645-.071-1.117-.315l-.315,2.277c.786.172,1.331.242,1.96.242,1.632,0,2.663-.615,3.236-1.96l3.28-7.575q.5-1.174.859-1.919h-3.108c-.086.502-.214.916-.615,1.905Z"/>
      <path class="cls-1" d="M172.996,43.123c-2.892,0-4.725,1.817-4.725,4.681,0,2.879,1.833,4.711,4.711,4.711,2.848,0,4.738-1.89,4.738-4.74,0-2.835-1.833-4.652-4.725-4.652ZM172.996,50.339c-1.245,0-1.989-.96-1.989-2.548,0-1.575.745-2.52,2.004-2.52,1.216,0,1.947.945,1.947,2.548,0,1.588-.716,2.52-1.962,2.52Z"/>
      <path class="cls-1" d="M187.886,43.452h-2.963c.086.745.115,1.346.115,2.148v2.936c-.559.916-1.361,1.474-2.148,1.474-.416,0-.731-.143-.932-.401-.172-.229-.229-.487-.229-1.073v-2.936c0-.859.029-1.46.115-2.148h-2.978c.072.601.115,1.317.115,2.148v3.595c0,1.13.244,1.833.817,2.405.544.529,1.317.802,2.276.802,1.218,0,2.033-.344,2.978-1.231-.013.099-.013.315-.013.386v.617h2.848c-.086-.573-.115-1.161-.115-2.148v-4.425c0-.872.029-1.474.115-2.148Z"/>
      <path class="cls-1" d="M192.238,44.584v-1.132h-2.848c.086.617.115,1.117.115,2.163v4.41c0,.93-.029,1.445-.115,2.161h2.963c-.086-.687-.115-1.231-.115-2.148v-2.233c.057-.63.158-.93.429-1.273.416-.515.974-.773,1.705-.773.443,0,.802.071,1.46.271l.687-2.577c-.674-.143-.96-.172-1.418-.172-1.302,0-2.161.387-2.863,1.304Z"/>
      <path class="cls-1" d="M203.491,42.78v.672h-.386c-.544,0-1.203-.042-1.604-.099v2.405c.487-.073.93-.101,1.604-.101h.386v4.368c0,.93-.029,1.46-.115,2.161h2.978c-.086-.701-.115-1.174-.115-2.161v-4.368h.445c.802,0,1.273.029,1.875.101v-2.405c-.529.057-1.302.099-1.903.099h-.416v-.357c0-.744.273-1.031.974-1.031.544,0,.974.115,1.418.357l.443-2.104c-.786-.216-1.374-.302-2.176-.302-2.333,0-3.408.874-3.408,2.764Z"/>
      <path class="cls-1" d="M218.626,48.335c-.044-.817-.101-1.418-.216-1.876-.5-2.132-2.062-3.35-4.295-3.35-2.734,0-4.553,1.876-4.553,4.711,0,1.416.458,2.634,1.304,3.493.815.815,1.919,1.216,3.322,1.216,1.416,0,2.562-.414,3.379-1.216.401-.401.615-.731.945-1.476l-2.491-.701c-.115.372-.216.529-.429.729-.372.344-.874.531-1.447.531-1.13,0-1.804-.617-1.947-1.775h6.443c-.013-.143-.013-.229-.013-.286ZM212.24,46.645c.242-.945.859-1.403,1.875-1.403.989,0,1.604.487,1.804,1.403h-3.679Z"/>
      <path class="cls-1" d="M228.476,48.335c-.044-.817-.101-1.418-.216-1.876-.5-2.132-2.062-3.35-4.295-3.35-2.734,0-4.553,1.876-4.553,4.711,0,1.416.458,2.634,1.304,3.493.815.815,1.919,1.216,3.322,1.216,1.416,0,2.562-.414,3.379-1.216.401-.401.615-.731.945-1.476l-2.491-.701c-.115.372-.216.529-.429.729-.372.344-.874.531-1.447.531-1.13,0-1.804-.617-1.947-1.775h6.443c-.013-.143-.013-.229-.013-.286ZM222.09,46.645c.242-.945.859-1.403,1.875-1.403.989,0,1.603.487,1.804,1.403h-3.679Z"/>
      <path class="cls-1" d="M232.628,40.273h-2.993c.086.544.115,1.145.115,2.163v7.588c0,1.031-.029,1.518-.115,2.161h2.993c-.086-.758-.115-1.302-.115-2.161v-7.588c0-.974.029-1.562.115-2.163Z"/>
      <rect class="cls-1" x="234.174" y="40.273" width="2.906" height="2.148"/>
      <path class="cls-1" d="M237.123,43.452h-2.993c.086.645.115,1.231.115,2.163v4.41c0,.916-.029,1.46-.115,2.161h2.993c-.073-.615-.115-1.388-.115-2.161v-4.41c0-1.002.029-1.575.115-2.163Z"/>
      <path class="cls-1" d="M247.546,46.445c0-1.132-.244-1.833-.817-2.405-.529-.531-1.317-.802-2.304-.802-1.174,0-2.048.357-2.949,1.216,0-.099.013-.315.013-.401v-.601h-2.848c.086.573.115,1.174.115,2.163v4.41c0,.888-.029,1.489-.115,2.161h2.963c-.086-.745-.115-1.346-.115-2.161v-2.892c.617-1.002,1.332-1.504,2.134-1.504.43,0,.758.143.945.401.172.244.229.487.229,1.06v2.936c0,.872-.029,1.474-.115,2.161h2.978c-.072-.601-.115-1.317-.115-2.148v-3.593Z"/>
      <path class="cls-1" d="M255.449,44.068c-.773-.588-1.546-.83-2.606-.83-2.449,0-4.066,1.674-4.066,4.223,0,2.606,1.575,4.238,4.066,4.238,1.101,0,1.875-.286,2.606-.945-.029.76-.158,1.189-.458,1.533-.344.414-.96.63-1.747.63-.945,0-1.676-.33-2.176-.974l-2.062,1.359c1.002,1.103,2.291,1.59,4.238,1.59,1.432,0,2.634-.302,3.408-.846,1.002-.701,1.489-1.861,1.489-3.579v-5.024c0-.846.029-1.346.115-1.991h-2.806v.617ZM253.372,49.637c-1.13,0-1.875-.844-1.875-2.161,0-1.332.745-2.205,1.89-2.205,1.159,0,2.004.916,2.004,2.19s-.846,2.176-2.02,2.176Z"/>
      <path class="cls-1" d="M266.531,47.304c-.502-.258-.945-.388-2.348-.687-1.418-.315-1.718-.458-1.718-.846,0-.372.458-.615,1.203-.615.773,0,1.13.258,1.203.844l2.762-.3c-.229-.802-.458-1.218-.93-1.632-.674-.617-1.689-.916-3.051-.916-2.39,0-3.837,1.044-3.837,2.762,0,.487.13.974.359,1.361.271.43.745.758,1.432,1.016.472.158,1.031.302,2.119.515.786.158.973.216,1.174.33.2.115.315.3.315.515,0,.443-.487.687-1.346.687-.96,0-1.447-.33-1.59-1.075l-2.835.315c.143.687.286,1.031.573,1.432.687.945,1.962,1.432,3.766,1.432,1.531,0,2.705-.357,3.392-1.044.473-.458.731-1.145.731-1.905,0-1.031-.445-1.731-1.375-2.19Z"/>
      <rect class="cls-1" x="269.108" y="49.293" width="2.892" height="2.892"/>
      <path class="cls-1" d="M8.298,21.207h7.537c3.048,0,4.651.08,6.415.281v-7.416c-1.764.2-3.287.281-6.415.281h-7.537v-6.574h9.221c3.367,0,4.931.08,6.695.281V.441c-1.884.241-3.207.281-6.735.281H5.893C2.806.722,1.684.682.04.601c.24,1.884.321,3.207.321,5.853v20.766c0,3.488-.08,5.091-.361,6.855h8.619c-.281-1.764-.321-3.207-.321-6.975v-5.893Z"/>
      <path class="cls-1" d="M27.581,34.075h8.819c-.241-1.684-.321-3.167-.321-5.933V6.655c0-2.926.08-4.289.321-5.933h-8.819c.24,1.764.321,2.926.321,5.933v21.487c0,2.686-.08,4.37-.321,5.933Z"/>
      <path class="cls-1" d="M66.507,26.859c-1.724.201-3.488.281-6.534.281h-10.343v-6.735h8.659c2.766,0,4.129.08,6.013.281v-7.416c-2.405.24-3.367.281-6.013.281h-8.659v-5.893h10.423c2.686,0,4.129.08,5.973.281V.441c-1.884.201-3.247.281-5.973.281h-12.788c-3.127,0-4.249-.04-5.893-.12.24,1.964.321,3.367.321,5.853v21.888c0,2.766-.08,4.249-.321,5.853,1.724-.08,2.846-.12,5.893-.12h12.628c3.448,0,4.891.08,6.615.281v-7.496Z"/>
      <path class="cls-1" d="M95.37,26.659c-1.884.24-3.247.281-6.655.281h-9.701V7.056c0-3.127.04-4.249.321-6.334h-8.739c.241,1.924.321,3.648.321,6.454v21.167c0,2.686-.08,4.45-.321,5.853,1.523-.08,3.167-.12,5.933-.12h12.187c3.207,0,5.171.08,6.655.281v-7.697Z"/>
      <path class="cls-1" d="M98.457,28.342c0,2.766-.08,4.089-.321,5.853,1.684-.08,2.806-.12,5.893-.12h8.459c4.771,0,8.579-1.363,11.265-4.009,3.047-3.047,4.65-7.456,4.65-12.948,0-5.332-1.483-9.541-4.41-12.427-2.686-2.606-6.655-3.969-11.585-3.969h-8.378c-3.327,0-4.33-.04-5.933-.12.281,1.844.361,3.167.361,5.893v21.848ZM106.395,7.737h5.251c2.886,0,4.811.641,6.214,2.044,1.563,1.563,2.325,4.049,2.325,7.456,0,3.327-.882,6.013-2.526,7.697-1.443,1.443-3.287,2.125-5.893,2.125h-5.372V7.737Z"/>
      <path class="cls-1" d="M145.761,34.195c1.523-.08,3.167-.12,5.933-.12h12.187c3.207,0,5.171.08,6.655.281v-7.697c-1.884.24-3.247.281-6.655.281h-9.701V7.056c0-3.127.04-4.249.321-6.334h-8.739c.241,1.924.321,3.648.321,6.454v21.167c0,2.686-.08,4.45-.321,5.853Z"/>
      <path class="cls-1" d="M181.439,29.745l1.082-3.407h11.425l1.082,3.407c.401,1.363.641,2.405.962,4.33h9.381c-.521-1.122-1.163-2.766-1.924-4.891l-8.699-24.133c-.802-2.125-1.082-3.167-1.363-4.33h-10.463c-.201,1.162-.561,2.365-1.283,4.33l-8.659,24.133c-.962,2.726-1.323,3.688-1.924,4.891h9.381c.2-1.483.481-2.726,1.002-4.33ZM188.174,7.577l3.808,12.026h-7.537l3.728-12.026Z"/>
      <path class="cls-1" d="M233.433,18.561c-1.163-1.002-2.205-1.483-4.169-1.924,1.644-.601,2.365-1.002,3.247-1.764,1.523-1.363,2.325-3.287,2.325-5.733,0-5.292-3.808-8.418-10.303-8.418h-10.503c-3.287,0-3.848,0-5.893-.12.24,1.924.321,3.648.321,5.773v21.928c0,2.806-.08,4.169-.321,5.893,1.724-.08,2.886-.12,5.933-.12h10.904c6.975,0,11.064-3.408,11.064-9.18,0-2.646-.882-4.81-2.606-6.334ZM216.316,7.296h6.975c2.285,0,3.528,1.122,3.528,3.087s-1.323,3.207-3.448,3.207h-7.055v-6.294ZM223.692,27.46h-7.376v-7.456h7.336c2.566,0,4.089,1.363,4.089,3.688,0,2.365-1.523,3.768-4.049,3.768Z"/>
      <path class="cls-1" d="M255.241,34.837c9.741,0,16.196-7.015,16.196-17.599,0-10.503-6.294-17.238-16.155-17.238s-16.196,6.775-16.196,17.358,6.334,17.478,16.155,17.478ZM255.281,6.895c4.851,0,7.817,3.929,7.817,10.423,0,6.574-2.967,10.583-7.817,10.583-4.891,0-7.897-4.049-7.897-10.583,0-6.454,3.007-10.423,7.897-10.423Z"/>
    </g>
  </g>
</svg>